<svg xmlns="http://www.w3.org/2000/svg" viewBox="0 0 32 32">
  <rect width="32" height="32" rx="7" fill="#070B18"/>
  <path d="M16 3L25.5 7.5V18c0 5.8-4 10.8-9.5 12.5C11 29 7 24 7 18V7.5Z" fill="#1877F2"/>
  <path d="M16 3L25.5 7.5V18c0 5.8-4 10.8-9.5 12.5C11 29 7 24 7 18V7.5Z" fill="none" stroke="rgba(255,255,255,0.18)" stroke-width="0.5"/>
  <rect x="12.5" y="17" width="7" height="5.5" rx="1.5" fill="white"/>
  <path d="M14 17v-2.2c0-1.1.9-2 2-2s2 .9 2 2V17" fill="none" stroke="white" stroke-width="1.6" stroke-linecap="round"/>
  <circle cx="16" cy="19.6" r="1" fill="#1877F2"/>
  <text x="16" y="11.5" text-anchor="middle" font-family="Arial Black, Arial, sans-serif" font-weight="900" font-size="4.8" fill="rgba(255,255,255,0.6)">VPN</text>
</svg>
